<?xml version="1.0" encoding="UTF-8" standalone="no"?>
<!DOCTYPE svg PUBLIC "-//W3C//DTD SVG 1.1//EN" "http://www.w3.org/Graphics/SVG/1.1/DTD/svg11.dtd">
<!-- Generated by Microsoft Visio, SVG Export 7inch_hdmi_case.svg Page-1 -->
<svg xmlns="http://www.w3.org/2000/svg" xmlns:xlink="http://www.w3.org/1999/xlink" xmlns:ev="http://www.w3.org/2001/xml-events"
		width="16.0354in" height="22.8858in" viewBox="0 0 1154.55 1647.78" xml:space="preserve" color-interpolation-filters="sRGB"
		class="st4">
	<style type="text/css">
	<![CDATA[
		.st1 {fill:#ffffff;fill-opacity:0.35;stroke:#000000;stroke-linecap:round;stroke-linejoin:round;stroke-width:0.75}
		.st2 {fill:#ffffff;stroke:#000000;stroke-linecap:round;stroke-linejoin:round;stroke-width:0.75}
		.st3 {fill:none;stroke:#000000;stroke-linecap:round;stroke-linejoin:round;stroke-width:0.75}
		.st4 {fill:none;fill-rule:evenodd;font-size:12px;overflow:visible;stroke-linecap:square;stroke-miterlimit:3}
	]]>
	</style>

	<g>
		<title>Page-1</title>
		<g id="group1017-1" transform="translate(18,-1286.79)">
			<title>Sheet.1017</title>
			<g id="shape12-2">
				<title>Sheet.12</title>
				<rect x="0" y="1304.79" width="807.874" height="342.992" rx="14.1732" ry="14.1732" class="st1"/>
			</g>
			<g id="shape11-4" transform="translate(171.496,-31.1811)">
				<title>Sheet.11</title>
				<rect x="0" y="1367.15" width="464.882" height="280.63" class="st1"/>
			</g>
		</g>
		<g id="group1018-6" transform="translate(18,-916.441)">
			<title>Sheet.1018</title>
			<g id="shape1015-7" transform="translate(170.079,-26.9291)">
				<title>Sheet.1015</title>
				<rect x="0" y="1358.65" width="467.717" height="289.134" class="st1"/>
			</g>
			<g id="shape1016-9">
				<title>Sheet.1016</title>
				<rect x="0" y="1304.79" width="807.874" height="342.992" rx="14.1732" ry="14.1732" class="st1"/>
			</g>
		</g>
		<g id="group1019-11" transform="translate(18,-546.095)">
			<title>Sheet.1019</title>
			<g id="shape10-12">
				<title>Sheet.10</title>
				<rect x="0" y="1304.79" width="807.874" height="342.992" rx="14.1732" ry="14.1732" class="st1"/>
			</g>
			<g id="group1014-14" transform="translate(171.496,-31.1811)">
				<title>Sheet.1014</title>
				<g id="shape3-15" transform="translate(446.457,-7.15143)">
					<title>Sheet.3</title>
					<ellipse cx="4.25197" cy="1643.53" rx="4.25197" ry="4.25197" class="st2"/>
				</g>
				<g id="shape5-17" transform="translate(9.92127,-7.15143)">
					<title>Sheet.5</title>
					<ellipse cx="4.25197" cy="1643.53" rx="4.25197" ry="4.25197" class="st2"/>
				</g>
				<g id="shape6-19" transform="translate(9.92127,-265.104)">
					<title>Sheet.6</title>
					<ellipse cx="4.25197" cy="1643.53" rx="4.25197" ry="4.25197" class="st3"/>
				</g>
				<g id="shape4-21" transform="translate(446.457,-265.104)">
					<title>Sheet.4</title>
					<ellipse cx="4.25197" cy="1643.53" rx="4.25197" ry="4.25197" class="st3"/>
				</g>
				<g id="shape1013-23">
					<title>Sheet.1013</title>
					<path d="M442.5 1367.15 L23.24 1367.15 L23.24 1382.07 A7.74803 7.45959 0 0 1 15.5 1389.53 L0 1389.53 L0 1624.54
								 L14.92 1624.54 A7.74803 7.45959 90 0 1 22.38 1632.28 L22.38 1647.78 L441.64 1647.78 L441.64 1632.86
								 A7.74803 7.45959 0 0 1 449.39 1625.4 L464.88 1625.4 L464.88 1390.39 L449.96 1390.39 A7.74803 7.45959
								 90 0 1 442.5 1382.65 L442.5 1367.15 Z" class="st1"/>
				</g>
			</g>
		</g>
	</g>
</svg>
